<?xml version="1.0" encoding="iso-8859-1"?>
<!-- Generator: Adobe Illustrator 16.0.0, SVG Export Plug-In . SVG Version: 6.00 Build 0)  -->
<!DOCTYPE svg PUBLIC "-//W3C//DTD SVG 1.1//EN" "http://www.w3.org/Graphics/SVG/1.1/DTD/svg11.dtd">
<svg version="1.1" id="Layer_1" xmlns="http://www.w3.org/2000/svg" xmlns:xlink="http://www.w3.org/1999/xlink" x="0px" y="0px"
	 width="192.756px" height="192.756px" viewBox="0 0 192.756 192.756" style="enable-background:new 0 0 192.756 192.756;"
	 xml:space="preserve">
<g>
	<polygon style="fill-rule:evenodd;clip-rule:evenodd;fill:#FFFFFF;" points="0,0 192.756,0 192.756,192.756 0,192.756 0,0 	"/>
	<path style="fill-rule:evenodd;clip-rule:evenodd;" d="M182.781,96.378c0,47.719-38.684,86.402-86.403,86.402
		c-47.719,0-86.403-38.684-86.403-86.402c0-47.719,38.684-86.402,86.403-86.402C144.098,9.976,182.781,48.659,182.781,96.378
		L182.781,96.378z"/>
	<path d="M184.252,96.378L184.252,96.378c0,24.267-9.836,46.235-25.738,62.137c-15.9,15.901-37.869,25.736-62.133,25.737h-0.002
		h-0.001c-24.266,0-46.234-9.836-62.135-25.738C18.34,142.612,8.504,120.645,8.504,96.381v-0.003v-0.001
		c0-24.266,9.836-46.234,25.738-62.136C50.144,18.34,72.111,8.505,96.375,8.504h0.002h0.001c24.266,0,46.234,9.836,62.135,25.738
		c15.902,15.901,25.738,37.869,25.738,62.133V96.378L184.252,96.378z M181.309,96.379L181.309,96.379v-0.004
		c0-23.452-9.506-44.684-24.875-60.053s-36.602-24.875-60.055-24.875h-0.001h-0.002c-23.452,0-44.684,9.506-60.053,24.875
		c-15.37,15.369-24.876,36.602-24.876,60.055v0.001v0.003c0,23.452,9.507,44.684,24.875,60.053
		c15.369,15.369,36.602,24.876,60.055,24.876h0.001h0.002c23.452-0.001,44.684-9.507,60.053-24.875
		C171.803,141.065,181.309,119.832,181.309,96.379L181.309,96.379z"/>
	<path style="fill-rule:evenodd;clip-rule:evenodd;fill:#FFFFFF;" d="M168.643,95.789c0,40.562-32.881,73.442-73.441,73.442
		c-40.562,0-73.442-32.881-73.442-73.442c0-40.561,32.881-73.441,73.442-73.441C135.762,22.348,168.643,55.228,168.643,95.789
		L168.643,95.789z"/>
	<polygon style="fill-rule:evenodd;clip-rule:evenodd;fill:#EFC93F;" points="48.514,156.6 63.031,141.691 62.834,152.873 
		86.08,152.873 86.177,172.292 97.162,171.899 96.771,118.151 108.148,118.151 142.279,156.6 149.342,150.322 119.918,118.151 
		127.764,118.151 141.104,101.675 169.498,101.675 169.35,90.493 146.398,90.493 146.398,64.011 141.104,56.95 151.695,44.788 
		144.242,38.903 135.219,48.417 128.549,40.864 96.378,40.864 96.378,21.248 86.177,21.248 86.177,40.472 62.54,40.472 
		62.638,54.203 46.161,38.118 38.707,44.003 62.638,71.073 62.54,91.67 19.09,91.866 18.306,102.459 62.54,102.263 62.638,127.175 
		39.883,149.146 48.514,156.6 	"/>
	<polygon style="fill-rule:evenodd;clip-rule:evenodd;" points="66.954,45.18 66.954,149.342 85.491,149.342 85.491,112.855 
		125.803,112.855 142.279,92.259 142.279,65.482 125.213,45.18 66.954,45.18 	"/>
	<path d="M68.425,46.651V147.87H84.02v-35.015v-1.472h1.471h39.603l15.715-19.642V66.021l-16.281-19.369H68.425L68.425,46.651z
		 M65.482,149.342V45.18v-1.471h1.471h58.259h0.688l0.439,0.523l17.066,20.303l0.346,0.411v0.537v26.776v0.517l-0.322,0.402
		l-16.479,20.597l-0.441,0.552h-0.707h-38.84v35.015v1.472h-1.472H66.954h-1.471V149.342L65.482,149.342z"/>
	<polygon style="fill-rule:evenodd;clip-rule:evenodd;fill:#EFC93F;" points="86.08,63.717 116.975,63.717 124.33,72.25 
		124.33,85.491 117.564,94.024 86.08,94.024 86.08,63.717 	"/>
	<path d="M172.355,95.789v0.001c0,21.305-8.637,40.594-22.598,54.556c-13.963,13.961-33.25,22.597-54.554,22.598h-0.002H95.2
		c-21.305,0-40.594-8.637-54.556-22.599c-13.961-13.962-22.597-33.249-22.598-54.554v-0.003v-0.001
		c0-21.305,8.637-40.594,22.599-54.556c13.961-13.961,33.25-22.597,54.554-22.598h0.002h0.001c21.306,0,40.595,8.637,54.556,22.599
		c13.961,13.961,22.598,33.25,22.598,54.554V95.789L172.355,95.789z M167.648,95.791v-0.001v-0.002
		c0-20.005-8.109-38.116-21.219-51.225c-13.109-13.11-31.223-21.219-51.228-21.219h-0.001h-0.002
		c-20.005,0-38.116,8.109-51.226,21.218c-13.11,13.11-21.219,31.222-21.219,51.227v0.001v0.003c0,20.005,8.109,38.115,21.218,51.225
		c13.11,13.11,31.222,21.22,51.228,21.22h0.001h0.002c20.005-0.001,38.115-8.109,51.226-21.219
		C159.539,133.908,167.648,115.796,167.648,95.791L167.648,95.791z"/>
	<polygon style="fill-rule:evenodd;clip-rule:evenodd;fill:#FFFFFF;" points="91.677,69.241 91.677,88.5 112.938,88.5 
		118.439,82.747 118.439,74.994 113.938,69.241 91.677,69.241 	"/>
</g>
</svg>
